<?xml version="1.0" encoding="UTF-8" standalone="no"?>
<svg width="800" height="400" xmlns="http://www.w3.org/2000/svg">
    <!-- Background -->
    <rect width="100%" height="100%" fill="#1a1a1a"/>
    
    <!-- Grid lines -->
    <g stroke="#333" stroke-width="1">
        <line x1="0" y1="100" x2="800" y2="100"/>
        <line x1="0" y1="200" x2="800" y2="200"/>
        <line x1="0" y1="300" x2="800" y2="300"/>
    </g>
    
    <!-- Complex price action with multiple patterns -->
    <path d="M50,300 L150,250 L250,280 L350,200 L450,150 L550,250 L650,200 L750,150" 
          stroke="#4CAF50" fill="none" stroke-width="2"/>
    
    <!-- Support/Resistance levels -->
    <line x1="0" y1="280" x2="800" y2="280" stroke="#f44336" stroke-width="2" stroke-dasharray="5,5"/>
    <line x1="0" y1="150" x2="800" y2="150" stroke="#2196F3" stroke-width="2" stroke-dasharray="5,5"/>
    
    <!-- Volume bars -->
    <g fill="#555">
        <rect x="50" y="350" width="20" height="30"/>
        <rect x="150" y="350" width="20" height="40"/>
        <rect x="250" y="350" width="20" height="20"/>
        <rect x="350" y="350" width="20" height="35"/>
        <rect x="450" y="350" width="20" height="45"/>
        <rect x="550" y="350" width="20" height="25"/>
        <rect x="650" y="350" width="20" height="30"/>
        <rect x="750" y="350" width="20" height="40"/>
    </g>
    
    <!-- Labels -->
    <text x="20" y="30" fill="#fff" font-family="Arial" font-size="20">Practice Chart</text>
    <text x="20" y="60" fill="#ccc" font-family="Arial" font-size="14">Identify patterns and key levels</text>
</svg>
